<svg xmlns="http://www.w3.org/2000/svg" viewBox="0 0 64 64" role="img" aria-label="My Home Manager icon">
  <style>
    .house { fill: #E8DDCF; stroke: #7A5C3E; stroke-width: 3; stroke-linecap: round; stroke-linejoin: round; }
    .capy { fill: #7A5C3E; }
    .eye { fill: #FAF8F4; }
    .ear { fill: none; stroke: #FAF8F4; stroke-width: 2.2; stroke-linecap: round; }
    @media (prefers-color-scheme: dark) {
      .house { fill: #3E4A46; stroke: #E8DDCF; }
      .capy { fill: #E8DDCF; }
      .eye { fill: #3E4A46; }
      .ear { stroke: #3E4A46; }
    }
  </style>
  <path class="house" d="M10 27 32 10l22 17v24a3 3 0 0 1-3 3H13a3 3 0 0 1-3-3Z"/>
  <path class="capy" d="M20 39c0-6.4 5.8-11.5 12.9-11.5h3.6c3.8 0 6.9 2.5 7.6 6h1.8a3.6 3.6 0 1 1 0 7.2h-1.8c-.7 3.4-3.8 6-7.6 6h-3.6C25.8 46.7 20 43.2 20 39Z"/>
  <circle class="eye" cx="41.1" cy="32.6" r="1.4"/>
  <path class="ear" d="M26.8 27a3 3 0 1 1 6 0"/>
</svg>
